<?xml version="1.0" standalone="no"?>
<!DOCTYPE svg PUBLIC "-//W3C//DTD SVG 20010904//EN"
 "http://www.w3.org/TR/2001/REC-SVG-20010904/DTD/svg10.dtd">
<svg version="1.0" xmlns="http://www.w3.org/2000/svg"
 width="1050.000000pt" height="600.000000pt" viewBox="0 0 1050.000000 600.000000"
 preserveAspectRatio="xMidYMid meet">

<g transform="translate(0.000000,600.000000) scale(0.100000,-0.100000)"
fill="#000000" stroke="none">
<path d="M3032 2318 c3 -193 5 -213 21 -216 16 -3 17 12 17 212 0 210 -1 216
-20 216 -20 0 -20 -5 -18 -212z"/>
<path d="M3230 2315 c0 -201 1 -216 18 -213 15 3 17 21 20 182 l2 178 31 -38
c17 -22 36 -37 43 -36 6 2 8 0 4 -4 -11 -10 32 -65 44 -58 7 4 8 2 4 -4 -9
-15 154 -221 175 -222 14 0 16 24 18 196 2 205 -1 234 -25 234 -12 0 -14 -30
-14 -175 0 -96 -3 -175 -8 -175 -4 0 -13 9 -20 20 -7 12 -17 18 -22 15 -5 -3
-8 0 -5 7 6 16 -226 302 -248 306 -16 3 -17 -16 -17 -213z"/>
<path d="M3773 2510 c-39 -23 -53 -48 -53 -92 0 -61 44 -96 147 -118 27 -6 63
-20 81 -30 27 -17 32 -25 32 -60 0 -55 -32 -75 -120 -75 -49 0 -74 5 -102 22
-38 22 -61 15 -38 -12 17 -20 97 -45 147 -45 86 0 153 51 153 115 0 30 -33 87
-48 83 -4 -1 -16 3 -27 9 -11 6 -46 18 -78 26 -73 19 -103 39 -111 72 -8 33
15 72 50 85 37 14 110 12 149 -4 31 -13 45 -12 45 5 0 3 -15 14 -34 23 -49 23
-152 21 -193 -4z"/>
<path d="M4070 2515 c0 -12 16 -15 80 -15 l80 0 0 -200 c0 -171 2 -200 15
-200 8 0 15 6 15 13 0 6 2 95 3 197 l2 185 74 5 c47 3 76 10 79 18 3 9 -36 12
-172 12 -150 0 -176 -2 -176 -15z"/>
<path d="M4626 2503 c-7 -16 -48 -104 -91 -198 -42 -93 -81 -178 -86 -187 -8
-14 -6 -18 10 -18 15 0 27 16 47 60 l27 60 124 0 124 0 25 -55 c22 -51 46 -76
60 -62 3 3 -34 90 -81 194 -48 103 -91 198 -96 211 -12 31 -45 28 -63 -5z m88
-130 c25 -56 46 -107 46 -113 0 -6 -39 -10 -106 -10 -81 0 -105 3 -101 13 37
94 101 226 107 220 4 -4 28 -54 54 -110z"/>
<path d="M4970 2315 l0 -215 140 0 c135 0 140 1 140 21 0 19 -5 20 -121 18
l-120 -1 -1 196 c0 186 -1 196 -19 196 -18 0 -19 -10 -19 -215z"/>
<path d="M5373 2510 c-41 -25 -66 -71 -57 -107 13 -56 50 -79 179 -112 82 -21
110 -84 59 -132 -22 -21 -35 -24 -92 -24 -49 1 -78 7 -109 23 -41 21 -43 21
-43 4 0 -14 15 -25 56 -41 126 -48 238 -10 251 86 4 33 1 43 -25 71 -30 31
-59 44 -47 20 4 -7 0 -5 -7 4 -8 9 -37 22 -64 29 -68 17 -103 36 -116 64 -14
32 5 78 38 94 34 15 118 14 159 -3 29 -13 34 -12 39 0 16 41 -161 61 -221 24z"/>
<path d="M5740 2315 c0 -208 1 -215 20 -215 19 0 20 7 20 178 1 148 3 173 13
154 7 -12 17 -19 22 -15 4 4 5 3 2 -3 -8 -14 129 -249 145 -249 10 0 146 218
148 236 0 3 -7 6 -15 6 -15 0 -122 -174 -117 -190 1 -5 -3 -7 -10 -5 -13 5
-84 118 -134 211 -15 29 -29 45 -36 41 -7 -4 -8 -3 -4 5 10 15 -20 61 -39 61
-13 0 -15 -32 -15 -215z"/>
<path d="M6121 2476 c-17 -29 -31 -56 -31 -59 0 -12 31 1 45 19 13 17 14 0 15
-158 0 -151 2 -178 15 -178 13 0 15 31 15 215 0 243 -5 256 -59 161z"/>
<path d="M6467 2518 c-3 -7 -46 -102 -96 -212 -50 -109 -91 -200 -91 -202 0
-2 8 -4 18 -4 21 0 56 75 45 93 -3 6 -1 7 4 4 6 -4 13 0 17 8 4 12 29 15 129
15 l124 0 26 -60 c19 -45 31 -60 45 -60 18 0 8 26 -77 213 -77 168 -101 213
-118 215 -11 2 -23 -3 -26 -10z m40 -41 c0 -7 21 -59 46 -115 26 -57 47 -106
47 -108 0 -2 -47 -4 -105 -4 -58 0 -105 4 -105 9 0 4 14 38 30 75 17 37 28 72
24 79 -4 7 -4 9 1 5 5 -5 16 10 26 32 18 39 36 53 36 27z"/>
<path d="M6800 2314 c0 -200 1 -215 18 -212 14 3 18 16 20 71 l3 67 79 0 80 0
51 -70 c28 -38 57 -70 65 -70 22 0 17 12 -31 76 -46 61 -55 84 -32 84 7 0 26
13 42 30 23 24 30 41 33 88 4 55 2 61 -28 95 -40 46 -79 57 -202 57 l-98 0 0
-216z m252 162 c51 -34 59 -115 15 -164 -27 -29 -76 -42 -159 -42 l-68 0 0
116 0 116 93 -4 c66 -3 100 -9 119 -22z"/>
<path d="M7190 2515 c0 -12 16 -15 80 -15 l80 0 0 -200 c0 -171 2 -200 15
-200 8 0 15 6 15 13 0 6 2 95 3 197 l2 185 74 5 c47 3 76 10 79 18 3 9 -36 12
-172 12 -150 0 -176 -2 -176 -15z"/>
</g>
</svg>
